PathFileType	4	(X/Y/Z)	pose_F01_0-92.trc
DataRate	CameraRate	NumFrames	NumMarkers	Units	OrigDataRate	OrigDataStartFrame	OrigNumFrames
30	30	8	21	m	30	11	92
Frame#	Time	CHip			RHip			RKnee			RAnkle			RBigToe			RSmallToe			RHeel			LHip			LKnee			LAnkle			LBigToe			LSmallToe			LHeel			Neck			Nose			RShoulder			RElbow			RWrist			LShoulder			LElbow			LWrist			
		X1	Y1	Z1	X2	Y2	Z2	X3	Y3	Z3	X4	Y4	Z4	X5	Y5	Z5	X6	Y6	Z6	X7	Y7	Z7	X8	Y8	Z8	X9	Y9	Z9	X10	Y10	Z10	X11	Y11	Z11	X12	Y12	Z12	X13	Y13	Z13	X14	Y14	Z14	X15	Y15	Z15	X16	Y16	Z16	X17	Y17	Z17	X18	Y18	Z18	X19	Y19	Z19	X20	Y20	Z20	X21	Y21	Z21	
11	0.36666666666666664	-0.17726177854216565	1.8251950506899162	-0.6043083325149937	-0.19632293146804575	1.8223891772644982	-0.5445571823795756	-0.21151377567730847	1.6907028629715564	-0.5479562903490763	-0.1978500535070537	1.5613708329605247	-0.5139251484964757	-0.2437903991286574	1.5273758314817891	-0.5289533203812827	-0.2287711178989502	1.535217791292669	-0.5009727569185167	-0.18715473583179848	1.5511587881290931	-0.5114327185853758	-0.1593340309127539	1.8257167542754038	-0.6614739798180426	-0.16837256584976426	1.6962003853671421	-0.6335585543072573	-0.16620206112780805	1.5641922685587566	-0.6152410641174909	-0.2073712537551236	1.5296785242378825	-0.6369952502299214	-0.1927120311998681	1.5357955010995863	-0.6520032226768722	-0.1559049807077632	1.5490394024754643	-0.607102588005678	-1.5418857406838364	1.8900467001883567	0.8129106074984587	-0.21412177173189204	2.031708492412273	-0.6435962105923947	-1.704119258813663	1.8909458665300292	1.085692358792524	-0.2004845698168917	1.8928673419076913	-0.5005774908909161	-0.22516855958598564	1.8248209120011285	-0.5133127174531336	-1.3809493466789293	1.891267074212596	0.5610605823052862	-1.230518344287344	1.8317365198842845	0.3611358235804749	-1.224032131155863	1.8471494447598635	0.31052088808227096
12	0.4	-0.17726177854216565	1.8251950506899162	-0.6043083325149937	-0.19632293146804575	1.8223891772644982	-0.5445571823795756	-0.21151377567730847	1.6907028629715564	-0.5479562903490763	-0.1978500535070537	1.5613708329605247	-0.5139251484964757	-0.2437903991286574	1.5273758314817891	-0.5289533203812827	-0.2287711178989502	1.535217791292669	-0.5009727569185167	-0.18715473583179848	1.5511587881290931	-0.5114327185853758	-0.1593340309127539	1.8257167542754038	-0.6614739798180426	-0.16837256584976426	1.6962003853671421	-0.6335585543072573	-0.16620206112780805	1.5641922685587566	-0.6152410641174909	-0.2073712537551236	1.5296785242378825	-0.6369952502299214	-0.1927120311998681	1.5357955010995863	-0.6520032226768722	-0.1559049807077632	1.5490394024754643	-0.607102588005678	-1.5777838579575398	1.889822981912391	0.876560143604804	-0.21412177173189204	2.031708492412273	-0.6435962105923947	-1.7132349442915453	1.8907411365202589	1.102512499240188	-0.2004845698168917	1.8928673419076913	-0.5005774908909161	-0.22516855958598564	1.8248209120011285	-0.5133127174531336	-1.4140675350660208	1.8918841004983429	0.6164330082437877	-1.2321256660357767	1.832076255801354	0.36476843337416953	-1.3244202428712581	1.8738018533685943	0.46312086522596785
13	0.43333333333333335	-0.17726177854216565	1.8251950506899162	-0.6043083325149937	-0.19632293146804575	1.8223891772644982	-0.5445571823795756	-0.21151377567730847	1.6907028629715564	-0.5479562903490763	-0.1978500535070537	1.5613708329605247	-0.5139251484964757	-0.2437903991286574	1.5273758314817891	-0.5289533203812827	-0.2287711178989502	1.535217791292669	-0.5009727569185167	-0.18715473583179848	1.5511587881290931	-0.5114327185853758	-0.1593340309127539	1.8257167542754038	-0.6614739798180426	-0.16837256584976426	1.6962003853671421	-0.6335585543072573	-0.16620206112780805	1.5641922685587566	-0.6152410641174909	-0.2073712537551236	1.5296785242378825	-0.6369952502299214	-0.1927120311998681	1.5357955010995863	-0.6520032226768722	-0.1559049807077632	1.5490394024754643	-0.607102588005678	-1.5853480905599127	1.8899615263799507	0.8909743738656087	-0.21412177173189204	2.031708492412273	-0.6435962105923947	-1.7193294350295028	1.8888577953581742	1.1152479645712958	-0.2004845698168917	1.8928673419076913	-0.5005774908909161	-0.22516855958598564	1.8248209120011285	-0.5133127174531336	-1.4118382421356162	1.8920540608248804	0.6142887555158864	-1.2337329877842094	1.8324159917184233	0.3684010431678642	-1.357363327017639	1.8803587548449554	0.5151133038348459
14	0.4666666666666667	-0.17726177854216565	1.8251950506899162	-0.6043083325149937	-0.19632293146804575	1.8223891772644982	-0.5445571823795756	-0.21151377567730847	1.6907028629715564	-0.5479562903490763	-0.1978500535070537	1.5613708329605247	-0.5139251484964757	-0.2437903991286574	1.5273758314817891	-0.5289533203812827	-0.2287711178989502	1.535217791292669	-0.5009727569185167	-0.18715473583179848	1.5511587881290931	-0.5114327185853758	-0.1593340309127539	1.8257167542754038	-0.6614739798180426	-0.16837256584976426	1.6962003853671421	-0.6335585543072573	-0.16620206112780805	1.5641922685587566	-0.6152410641174909	-0.2073712537551236	1.5296785242378825	-0.6369952502299214	-0.1927120311998681	1.5357955010995863	-0.6520032226768722	-0.1559049807077632	1.5490394024754643	-0.607102588005678	-1.5932189519556998	1.8898646770231102	0.9058909504472953	-0.21412177173189204	2.031708492412273	-0.6435962105923947	-1.7348358072467478	1.8869330869936118	1.1451836871753427	-0.2004845698168917	1.8928673419076913	-0.5005774908909161	-0.22516855958598564	1.8248209120011285	-0.5133127174531336	-1.4214266344723137	1.8912655153379077	0.6309146427754329	-1.2353403095326418	1.8327557276354927	0.3720336529615589	-1.3480564116560954	1.8782775992400036	0.5060651692506679
15	0.5	-0.17726177854216565	1.8251950506899162	-0.6043083325149937	-0.19632293146804575	1.8223891772644982	-0.5445571823795756	-0.21151377567730847	1.6907028629715564	-0.5479562903490763	-0.1978500535070537	1.5613708329605247	-0.5139251484964757	-0.2437903991286574	1.5273758314817891	-0.5289533203812827	-0.2287711178989502	1.535217791292669	-0.5009727569185167	-0.18715473583179848	1.5511587881290931	-0.5114327185853758	-0.1593340309127539	1.8257167542754038	-0.6614739798180426	-0.16837256584976426	1.6962003853671421	-0.6335585543072573	-0.16620206112780805	1.5641922685587566	-0.6152410641174909	-0.2073712537551236	1.5296785242378825	-0.6369952502299214	-0.1927120311998681	1.5357955010995863	-0.6520032226768722	-0.1559049807077632	1.5490394024754643	-0.607102588005678	-1.5918669995458272	1.889882247739493	0.9045352115914334	-0.21412177173189204	2.031708492412273	-0.6435962105923947	-1.7332700647814518	1.886980322360105	1.143498887918847	-0.2004845698168917	1.8928673419076913	-0.5005774908909161	-0.22516855958598564	1.8248209120011285	-0.5133127174531336	-1.419201662887119	1.8913403578284682	0.6285415036964284	-1.2369476312810743	1.833095463552562	0.3756662627552535	-1.3387494962945516	1.876196443635052	0.4970170346664899
16	0.5333333333333333	-0.17726177854216565	1.8251950506899162	-0.6043083325149937	-0.19632293146804575	1.8223891772644982	-0.5445571823795756	-0.21151377567730847	1.6907028629715564	-0.5479562903490763	-0.1978500535070537	1.5613708329605247	-0.5139251484964757	-0.2437903991286574	1.5273758314817891	-0.5289533203812827	-0.2287711178989502	1.535217791292669	-0.5009727569185167	-0.18715473583179848	1.5511587881290931	-0.5114327185853758	-0.1593340309127539	1.8257167542754038	-0.6614739798180426	-0.16837256584976426	1.6962003853671421	-0.6335585543072573	-0.16620206112780805	1.5641922685587566	-0.6152410641174909	-0.2073712537551236	1.5296785242378825	-0.6369952502299214	-0.1927120311998681	1.5357955010995863	-0.6520032226768722	-0.1559049807077632	1.5490394024754643	-0.607102588005678	-1.5921035094887575	1.8896736656409	0.9049693412575649	-0.21412177173189204	2.031708492412273	-0.6435962105923947	-1.7519228546371954	1.887111286746289	1.1775098876967716	-0.2004845698168917	1.8928673419076913	-0.5005774908909161	-0.22516855958598564	1.8248209120011285	-0.5133127174531336	-1.4169766913019242	1.8914152003190285	0.6261683646174238	-1.238554953029507	1.8334351994696314	0.3792988725489482	-1.329442580933008	1.8741152880301002	0.48796890008231186
17	0.5666666666666667	-0.17726177854216565	1.8251950506899162	-0.6043083325149937	-0.19632293146804575	1.8223891772644982	-0.5445571823795756	-0.21151377567730847	1.6907028629715564	-0.5479562903490763	-0.1978500535070537	1.5613708329605247	-0.5139251484964757	-0.2437903991286574	1.5273758314817891	-0.5289533203812827	-0.2287711178989502	1.535217791292669	-0.5009727569185167	-0.18715473583179848	1.5511587881290931	-0.5114327185853758	-0.1593340309127539	1.8257167542754038	-0.6614739798180426	-0.16837256584976426	1.6962003853671421	-0.6335585543072573	-0.16620206112780805	1.5641922685587566	-0.6152410641174909	-0.2073712537551236	1.5296785242378825	-0.6369952502299214	-0.1927120311998681	1.5357955010995863	-0.6520032226768722	-0.1559049807077632	1.5490394024754643	-0.607102588005678	-1.5918791556131398	1.8901285335203113	0.9045999738565457	-0.21412177173189204	2.031708492412273	-0.6435962105923947	-1.7621164766552522	1.889292406042873	1.1956449706012906	-0.2004845698168917	1.8928673419076913	-0.5005774908909161	-0.22516855958598564	1.8248209120011285	-0.5133127174531336	-1.4151044279149332	1.8899619405531596	0.6237828971811904	-1.243945720687907	1.8347878668074853	0.3897010647765562	-1.3360736322851008	1.8693094074395535	0.49348802810465064
18	0.6	-0.17726177854216565	1.8251950506899162	-0.6043083325149937	-0.19632293146804575	1.8223891772644982	-0.5445571823795756	-0.21151377567730847	1.6907028629715564	-0.5479562903490763	-0.1978500535070537	1.5613708329605247	-0.5139251484964757	-0.2437903991286574	1.5273758314817891	-0.5289533203812827	-0.2287711178989502	1.535217791292669	-0.5009727569185167	-0.18715473583179848	1.5511587881290931	-0.5114327185853758	-0.1593340309127539	1.8257167542754038	-0.6614739798180426	-0.16837256584976426	1.6962003853671421	-0.6335585543072573	-0.16620206112780805	1.5641922685587566	-0.6152410641174909	-0.2073712537551236	1.5296785242378825	-0.6369952502299214	-0.1927120311998681	1.5357955010995863	-0.6520032226768722	-0.1559049807077632	1.5490394024754643	-0.607102588005678	-1.6009843348463844	1.8901992047618796	0.9206109087903368	-0.21412177173189204	2.031708492412273	-0.6435962105923947	-1.7624425748053687	1.8894796777226364	1.1961704922241765	-0.2004845698168917	1.8928673419076913	-0.5005774908909161	-0.22516855958598564	1.8248209120011285	-0.5133127174531336	-1.4255995045136078	1.8923464336071893	0.6407398218060845	-1.252413407900556	1.836830972201047	0.4046502056591659	-1.3056470225158694	1.8545038114401218	0.4535265468195488
